<svg width="18" height="19" viewBox="0 0 18 19" fill="none" xmlns="http://www.w3.org/2000/svg">
<path d="M9.39 0.152041C9.28132 0.0539196 9.14301 0 9 0C8.85699 0 8.71868 0.0539196 8.61 0.152041L0 7.94202V17.1C0 17.6039 0.189642 18.0872 0.527208 18.4435C0.864773 18.7998 1.32261 19 1.8 19H6.6C6.75913 19 6.91174 18.9333 7.02426 18.8145C7.13679 18.6957 7.2 18.5346 7.2 18.3667V14.5667C7.2 14.0628 7.38964 13.5795 7.72721 13.2232C8.06477 12.8669 8.52261 12.6667 9 12.6667C9.47739 12.6667 9.93523 12.8669 10.2728 13.2232C10.6104 13.5795 10.8 14.0628 10.8 14.5667V18.3667C10.8 18.5346 10.8632 18.6957 10.9757 18.8145C11.0883 18.9333 11.2409 19 11.4 19H16.2C16.6774 19 17.1352 18.7998 17.4728 18.4435C17.8104 18.0872 18 17.6039 18 17.1V7.94202L9.39 0.152041Z" fill="#F2C94C"/>
</svg>
