<svg width="21" height="17" viewBox="0 0 21 17" fill="none" xmlns="http://www.w3.org/2000/svg">
<path fill-rule="evenodd" clip-rule="evenodd" d="M12.6748 15.503L12.6808 13.5C12.6808 13.2341 12.7864 12.9791 12.9744 12.7911C13.1624 12.6031 13.4174 12.4975 13.6833 12.4975C13.9491 12.4975 14.2041 12.6031 14.3921 12.7911C14.5801 12.9791 14.6858 13.2341 14.6858 13.5V15.477C14.6858 15.958 14.6858 16.199 14.8398 16.347C14.9948 16.494 15.2298 16.484 15.7028 16.464C17.5658 16.385 18.7108 16.134 19.5168 15.328C20.3268 14.522 20.5778 13.377 20.6568 11.511C20.6718 11.141 20.6798 10.955 20.6108 10.832C20.5408 10.709 20.2658 10.555 19.7138 10.246C19.4028 10.0727 19.1438 9.81942 18.9635 9.51247C18.7832 9.20552 18.6881 8.85599 18.6881 8.5C18.6881 8.14401 18.7832 7.79448 18.9635 7.48753C19.1438 7.18058 19.4028 6.92734 19.7138 6.754C20.2658 6.446 20.5418 6.291 20.6108 6.168C20.6798 6.045 20.6718 5.86 20.6558 5.489C20.5778 3.623 20.3258 2.479 19.5168 1.672C18.6398 0.796 17.3618 0.575 15.1948 0.519C15.1284 0.517264 15.0624 0.528836 15.0006 0.553034C14.9388 0.577232 14.8824 0.613566 14.8349 0.659891C14.7874 0.706215 14.7496 0.761593 14.7238 0.822755C14.698 0.883917 14.6847 0.949624 14.6848 1.016V3.5C14.6848 3.76588 14.5791 4.02087 14.3911 4.20887C14.2031 4.39688 13.9481 4.5025 13.6823 4.5025C13.4164 4.5025 13.1614 4.39688 12.9734 4.20887C12.7854 4.02087 12.6798 3.76588 12.6798 3.5L12.6728 0.999C12.6725 0.866565 12.6197 0.739645 12.526 0.646093C12.4322 0.552541 12.3052 0.5 12.1728 0.5H8.66076C4.88076 0.5 2.99076 0.5 1.81576 1.672C1.00576 2.478 0.754758 3.623 0.675758 5.489C0.660758 5.859 0.652758 6.045 0.721758 6.168C0.791758 6.291 1.06676 6.446 1.61876 6.754C1.92969 6.92734 2.1887 7.18058 2.369 7.48753C2.5493 7.79448 2.64437 8.14401 2.64437 8.5C2.64437 8.85599 2.5493 9.20552 2.369 9.51247C2.1887 9.81942 1.92969 10.0727 1.61876 10.246C1.06676 10.555 0.790758 10.709 0.721758 10.832C0.652758 10.955 0.660758 11.14 0.676758 11.51C0.754758 13.377 1.00676 14.522 1.81576 15.328C2.99076 16.5 4.88076 16.5 8.66176 16.5H11.6718C12.1438 16.5 12.3788 16.5 12.5258 16.354C12.6728 16.208 12.6738 15.974 12.6748 15.503ZM14.6848 9.5V7.5C14.6848 7.23412 14.5791 6.97913 14.3911 6.79113C14.2031 6.60312 13.9481 6.4975 13.6823 6.4975C13.4164 6.4975 13.1614 6.60312 12.9734 6.79113C12.7854 6.97913 12.6798 7.23412 12.6798 7.5V9.5C12.6798 9.76601 12.7854 10.0211 12.9735 10.2092C13.1616 10.3973 13.4167 10.503 13.6828 10.503C13.9488 10.503 14.2039 10.3973 14.392 10.2092C14.5801 10.0211 14.6848 9.76601 14.6848 9.5Z" fill="white"/>
</svg>
